HIERARCHY
ROOT pelvis
{
  OFFSET 0 100 0
  CHANNELS 6 Xposition Yposition Zposition Zrotation Xrotation Yrotation
  JOINT pelvis_right_femur
  {
    OFFSET -10.78128 -3.44521 -0.5502486
    CHANNELS 3 Zrotation Xrotation Yrotation
    JOINT right_femur_tibia
    {
      OFFSET -0.8047443 -44.0398 -0.1307829
      CHANNELS 3 Zrotation Xrotation Yrotation
      JOINT right_tibia_foot
      {
        OFFSET 3.006224 -47.83518 -5
        CHANNELS 3 Zrotation Xrotation Yrotation
        End Site
        {
          OFFSET 0 -5 15
        }
      }
    }
  }
  JOINT pelvis_left_femur
  {
    OFFSET 10.78128 -3.44521 -0.5502486
    CHANNELS 3 Zrotation Xrotation Yrotation
    JOINT left_femur_tibia
    {
      OFFSET 0.8047443 -44.0398 -0.1307829
      CHANNELS 3 Zrotation Xrotation Yrotation
      JOINT left_tibia_foot
      {
        OFFSET -4.370144 -48.10324 -4.275266
        CHANNELS 3 Zrotation Xrotation Yrotation
        End Site
        {
          OFFSET 0 -5 15
        }
      }
    }
  }
  JOINT pelvis_spine1
  {
    OFFSET 0 6.468898 -3.129235
    CHANNELS 3 Zrotation Xrotation Yrotation
    JOINT spine1
    {
      OFFSET 0 23.15396 4.99043
      CHANNELS 3 Zrotation Xrotation Yrotation
      JOINT spine2
      {
        OFFSET 0 20.79997 -5.064912
        CHANNELS 3 Zrotation Xrotation Yrotation
        JOINT neck
        {
          OFFSET 0 14.38658 9.616178
          CHANNELS 3 Zrotation Xrotation Yrotation
          End Site
          {
            OFFSET 0 20 0
          }
        }
      }
      JOINT right_manubrium
      {
        OFFSET -5.722621 16.35077 3.967754
        CHANNELS 3 Zrotation Xrotation Yrotation
        JOINT right_clavicle
        {
          OFFSET -13.16364 1.694482 -4.693211
          CHANNELS 3 Zrotation Xrotation Yrotation
          JOINT right_humerus
          {
            OFFSET -28.5034 -0.3100689 -2.792744
            CHANNELS 3 Zrotation Xrotation Yrotation
            JOINT right_radius
            {
              OFFSET -25.15693 0.02248979 -1.271978
              CHANNELS 3 Zrotation Xrotation Yrotation
              End Site
              {
                OFFSET -15 0 0
              }
            }
          }
        }
      }
      JOINT left_manubrium
      {
        OFFSET 5.722621 16.35077 3.967754
        CHANNELS 3 Zrotation Xrotation Yrotation
        JOINT left_clavicle
        {
          OFFSET 13.16364 1.694482 -4.693211
          CHANNELS 3 Zrotation Xrotation Yrotation
          JOINT left_humerus
          {
            OFFSET 29.39168 -1.063119 -2.237045
            CHANNELS 3 Zrotation Xrotation Yrotation
            JOINT left_radius
            {
              OFFSET 24.59957 -0.9528479 0.9047498
              CHANNELS 3 Zrotation Xrotation Yrotation
              End Site
              {
                OFFSET 15 -0 -0
              }
            }
          }
        }
      }
    }
  }
}
MOTION
Frames: 15
Frame Time: 0.0416666666667
34.6762 105.2571 237.6077 1.760718 -6.734725 2.348008 0.9511207 10.58921 7.139871 -2.146951e-06 36.13154 1.264814e-06 5.182695 -9.878958 -3.343463 -3.309246 -14.45413 -8.972528 -3.261833e-07 20.18838 2.936907e-08 -5.513442 -10.28733 19.3627 -1.515516 -0.873631 8.496977 -1.312241 9.889386 -2.933498 2.881513 21.788 4.989903 1.449603 -17.15096 8.497489 2.10591 -21.11995 10.31028 81.46792 23.16406 -7.847294 -1.144008e-07 2.39829e-07 24.54104 -23.45569 13.00589 11.92748 4.339264 -14.69653 -2.876466 -93.92351 23.07284 26.28848 2.878369e-08 -2.827369e-08 -9.895012 -1.007479 7.895443 15.73505
36.04618 105.7932 243.6978 2.048792 -7.288317 2.701613 0.3875171 8.449025 7.117026 -5.724004e-07 43.10757 1.3644e-07 4.92231 -8.1187 -4.030525 -4.357135 -11.05536 -9.836015 -6.753446e-07 21.33809 -1.896388e-06 -4.985676 -10.77488 19.14513 -1.920912 -0.9659156 7.910611 -1.381733 9.953104 -3.174394 2.88601 22.1231 5.079979 1.449858 -16.88695 8.625728 2.458415 -20.19731 10.2329 82.11752 23.56299 -8.889244 -7.64726e-08 3.513873e-07 22.90286 -22.91346 12.82959 11.27509 4.0555 -14.82894 -3.131507 -92.67366 23.75306 24.57216 3.115667e-09 1.980652e-08 -10.28633 -0.7025362 8.178953 15.39728
37.35704 106.6429 249.5111 2.163975 -7.949445 3.292962 0.1330294 4.886853 6.940258 -1.545202e-07 49.72909 -1.637577e-07 4.530243 -7.154295 -5.044114 -5.00478 -6.99695 -10.36519 -5.058781e-07 21.38155 -3.431735e-06 -4.643024 -11.63804 18.64034 -2.192619 -0.7574134 7.053682 -1.355978 9.962829 -3.61289 2.877765 22.5802 5.115142 1.290039 -16.56217 8.816203 2.728212 -19.27011 10.15202 83.36591 24.00342 -10.15588 -1.703801e-08 4.867976e-07 21.25672 -22.3228 12.86394 10.67411 3.794026 -15.1518 -3.486667 -91.41623 24.46748 22.38171 -1.433375e-07 1.370742e-08 -11.1731 -0.289231 8.478706 15.02229
38.54376 107.5948 254.8233 2.032222 -8.461273 4.012502 0.4015187 -0.1254565 6.735525 7.244852e-07 53.63989 -6.579809e-07 3.68558 -7.367989 -6.00917 -5.21155 -2.570983 -10.85874 2.171254e-07 20.71092 -3.046232e-06 -4.303934 -12.63008 18.06978 -2.225705 -0.2926816 5.987793 -1.102346 9.951693 -4.227807 2.778081 22.93707 5.167141 1.102667 -16.34549 8.962839 3.038308 -18.38732 10.1595 84.36922 24.61966 -11.57724 2.993151e-08 4.121398e-07 19.47602 -21.12001 12.899 9.877677 3.642769 -15.70917 -3.875643 -89.82109 25.18465 19.82798 -3.064665e-07 2.789222e-09 -12.59588 0.3200505 8.941671 14.37998
39.62522 108.4356 259.846 1.857548 -8.624694 4.825896 0.8002378 -5.32444 6.309 -3.078681e-07 54.16189 3.239328e-07 2.882508 -7.707546 -6.855492 -5.163959 1.565932 -11.07281 1.037238e-06 19.02225 -2.143761e-06 -4.198618 -13.93705 17.38594 -2.1715 0.1822124 4.993904 -0.7868056 9.81072 -4.842976 2.70987 23.19414 5.201139 0.9267257 -16.24371 9.109428 3.093779 -17.62626 10.08595 85.51773 25.0325 -12.98494 5.965614e-09 3.045171e-07 17.89075 -20.19125 12.97 9.309611 3.765178 -16.38745 -4.186194 -88.4375 25.57808 17.26307 -4.58995e-07 -3.240677e-08 -14.30397 0.9647434 9.34996 13.64105
40.58834 108.917 264.6113 1.783138 -8.460897 5.665154 1.157321 -10.45166 5.796456 5.592836e-07 50.82838 -3.522369e-07 2.172281 -8.349466 -7.493114 -5.0644 5.157912 -11.24391 7.734501e-07 16.68274 -2.408965e-06 -3.991352 -15.56371 16.93862 -2.181492 0.6228905 4.174919 -0.4134609 9.569163 -5.40225 2.662916 23.30225 5.245421 0.8385327 -16.18104 9.204033 3.006649 -16.90505 9.966184 86.25299 25.37243 -14.30449 -4.063761e-09 2.294636e-07 16.36455 -19.34034 12.95183 8.802951 4.184736 -17.16496 -4.394207 -86.9118 25.76455 14.49474 -4.995813e-07 -6.920053e-08 -16.2909 1.579931 9.731039 12.7599
41.4523 108.9504 269.3983 1.800399 -7.956505 6.470944 1.34859 -15.01499 5.092889 5.042611e-07 44.60045 -3.70476e-07 1.674222 -8.815392 -8.001466 -4.999624 8.486998 -11.24137 2.980989e-07 14.45215 -2.885386e-06 -4.008019 -17.27151 16.45042 -2.255671 0.8660287 3.550427 -0.04673114 9.172185 -5.891608 2.693799 23.35156 5.244899 0.7969958 -16.15281 9.281389 2.710602 -16.13726 9.723578 87.09529 25.53101 -15.69333 -9.925807e-08 1.475213e-07 14.82849 -18.80334 12.93166 8.435574 4.846225 -17.98695 -4.445595 -85.57021 25.69594 11.65809 -4.652621e-07 -8.581933e-08 -18.46397 2.156842 10.04631 11.83038
42.23209 108.4955 274.3815 1.948664 -7.304819 7.197274 1.304215 -18.6204 4.243716 -5.107827e-07 36.69084 2.533863e-07 1.325771 -9.318187 -8.397226 -5.028909 11.32274 -11.093 -9.299667e-09 12.81153 -3.110966e-06 -4.103441 -18.8798 16.0835 -2.443824 0.9203632 3.134517 0.2701989 8.674363 -6.287049 2.789049 23.44852 5.182268 0.7905159 -16.07803 9.31647 2.286924 -15.32082 9.409385 88.00262 25.60588 -17.07191 -2.647165e-07 4.776365e-08 13.26083 -18.53622 12.87235 8.13947 5.63722 -18.81468 -4.362527 -84.42367 25.4989 8.779718 -3.804039e-07 -7.987494e-08 -20.71178 2.69621 10.35686 10.85667
42.88188 107.578 279.3621 2.134126 -6.752907 7.794616 1.212693 -21.79685 3.468415 9.195336e-07 29.04652 -8.654448e-07 0.7628017 -10.17399 -8.630624 -5.13125 13.80322 -11.13857 -1.071105e-06 12.1125 -4.455304e-06 -3.954651 -20.22765 15.99637 -2.67333 0.9654828 2.770192 0.5753147 8.20674 -6.612041 2.859177 23.59902 5.12515 0.8373166 -15.97609 9.291753 1.973109 -14.45384 9.162843 88.51802 25.82974 -18.35576 -3.10446e-07 1.185023e-08 11.53128 -17.9404 12.59361 7.592186 6.357427 -19.60288 -4.264846 -83.10431 25.40285 5.853581 -2.393687e-07 -5.07098e-08 -22.87951 3.311098 10.8288 9.725815
43.42404 106.4206 284.5014 2.17785 -6.28913 8.232326 1.230435 -23.76848 2.779766 7.729366e-07 23.05039 -7.317442e-07 0.03063645 -10.99267 -8.805303 -5.135732 16.01396 -11.08161 -9.033677e-07 12.72767 -4.305615e-06 -4.078153 -20.81011 15.79245 -2.762012 0.8308557 2.424606 0.8162069 7.724099 -6.868839 2.946433 23.83131 4.973917 0.8376806 -15.88409 9.222482 1.662223 -13.61813 8.905803 89.1481 25.99845 -19.47846 -3.204297e-07 -8.492416e-10 9.859601 -17.3163 12.26385 6.998539 6.864637 -20.20308 -4.090192 -82.13432 25.32425 3.446099 -1.621067e-07 1.741516e-08 -24.57115 3.974984 11.38029 8.62335
43.87265 105.2701 289.843 1.993814 -6.018762 8.502682 1.577277 -24.60935 2.469331 8.122716e-07 19.7798 -6.25517e-07 -0.9000274 -11.73571 -8.954807 -4.948483 17.80919 -11.03986 -3.682314e-07 14.51477 -3.92928e-06 -4.353679 -20.50757 15.58494 -2.624681 0.5945157 2.063473 1.010042 7.350723 -7.066801 3.010527 24.04202 4.766718 0.79673 -15.84941 9.107368 1.470892 -12.9546 8.714767 89.61763 26.15685 -20.26459 -1.461744e-07 1.255072e-07 8.466855 -16.53001 11.91382 6.357225 7.037723 -20.5275 -3.906145 -81.51317 25.32829 1.929203 -1.501981e-07 1.085187e-07 -25.43357 4.601769 11.95824 7.700439
44.30551 104.481 295.6494 1.609687 -5.967875 8.6429 2.203512 -24.0105 2.584727 4.711309e-07 20.31105 -3.020426e-07 -1.778699 -11.59635 -9.202592 -4.658643 19.39995 -10.97476 2.278422e-07 17.7425 -4.165608e-06 -4.996648 -19.30891 15.29725 -2.267934 0.1700334 1.716055 1.09656 7.11509 -7.178835 3.124533 24.24866 4.49429 0.7078508 -15.90789 9.025039 1.352708 -12.48035 8.537641 90.39849 26.08741 -20.76199 2.178044e-07 4.9151e-07 7.486821 -15.91669 11.68181 5.845942 6.854506 -20.48326 -3.712571 -81.72943 25.42194 1.664871 -2.11465e-07 2.10288e-07 -25.07916 5.035116 12.44644 7.225266
44.70196 104.2306 301.7329 1.104514 -6.229701 8.613759 3.229664 -22.47168 3.288231 1.151557e-06 22.77266 -5.629904e-07 -2.798177 -11.29816 -9.386664 -4.213461 20.09818 -11.11033 6.599557e-07 22.69419 -4.197608e-06 -5.533014 -17.35924 15.37362 -1.713751 -0.1700907 1.465606 1.170954 7.17157 -7.177132 3.19959 24.33636 4.251663 0.6724722 -16.04495 8.896928 1.459068 -12.27259 8.539881 90.66304 26.03035 -20.84667 6.550652e-07 8.294179e-07 6.882027 -15.05627 11.4226 5.278525 6.386446 -20.18804 -3.600112 -82.29671 25.60454 2.458543 -2.663311e-07 2.894129e-07 -23.67595 5.2682 12.88375 7.064402
45.06872 104.5857 308.0354 0.6922707 -6.745306 8.38757 4.266693 -19.52976 4.156589 -2.003957e-07 25.33871 5.28392e-07 -3.761774 -11.03945 -9.47278 -3.767704 19.27064 -11.19466 1.873384e-06 29.50026 -2.266113e-06 -6.175553 -14.97858 15.77344 -1.130622 -0.3584199 1.495832 1.161289 7.366402 -6.953283 3.322559 24.50144 3.992527 0.6806985 -16.17616 8.766796 1.590976 -12.26924 8.641637 90.80445 25.89582 -20.49755 8.340601e-07 9.14967e-07 6.685821 -14.38156 11.17299 4.854411 5.827157 -19.68257 -3.487824 -83.57439 25.87886 4.107438 -3.243807e-07 3.211665e-07 -21.46558 5.223256 13.22996 7.263711
45.32681 105.3293 314.0055 0.6465109 -7.653056 7.962353 4.970398 -15.88374 5.035354 6.081013e-07 26.95061 -1.991637e-08 -4.668739 -11.56128 -9.343427 -3.515344 16.24274 -11.45033 1.525299e-06 36.67024 -2.140316e-06 -6.226701 -12.99572 16.96172 -0.7962593 -0.07706608 1.874168 1.049755 7.737411 -6.439923 3.445359 24.77916 3.811116 0.7993542 -16.15944 8.628932 1.777133 -12.51309 8.925397 90.14185 25.85867 -19.48011 9.152253e-07 8.930087e-07 6.956933 -13.7516 10.6985 4.460954 5.326891 -19.0812 -3.494827 -84.96097 26.31802 6.020126 -2.830815e-07 2.566915e-07 -18.85295 4.93292 13.57125 7.592883
